<?xml version="1.0" encoding="utf-8"?>
<!-- Generator: Adobe Illustrator 22.0.0, SVG Export Plug-In . SVG Version: 6.00 Build 0)  -->
<svg version="1.1" id="Слой_1" xmlns="http://www.w3.org/2000/svg" xmlns:xlink="http://www.w3.org/1999/xlink" x="0px" y="0px"
	 viewBox="0 0 32 32" style="enable-background:new 0 0 32 32;" xml:space="preserve">
<style type="text/css">
	.st0{fill:#EFE5FE;}
</style>
<title>eye</title>
<path class="st0" d="M16,6C9,6,3,10.1,0,16c3,5.9,9,10,16,10s13-4.1,16-10C29,10.1,23,6,16,6z M23.9,11.3c1.9,1.2,3.5,2.8,4.7,4.7
	c-1.2,1.9-2.8,3.5-4.7,4.7C21.5,22.2,18.8,23,16,23s-5.5-0.8-7.9-2.3c-1.9-1.2-3.5-2.8-4.7-4.7c1.2-1.9,2.8-3.5,4.7-4.7
	c0.1-0.1,0.2-0.2,0.4-0.2C8.2,11.9,8,12.9,8,13.8c0,4.4,3.6,8,8,8s8-3.6,8-8c0-1-0.2-1.9-0.5-2.7C23.6,11.1,23.8,11.2,23.9,11.3
	L23.9,11.3z M16,13c0,1.7-1.3,3-3,3s-3-1.3-3-3s1.3-3,3-3S16,11.3,16,13z"/>
</svg>
